<svg id="svg2" height="512" width="512" xmlns="http://www.w3.org/2000/svg" xmlns:cc="http://creativecommons.org/ns#" xmlns:dc="http://purl.org/dc/elements/1.1/" xmlns:inkscape="http://www.inkscape.org/namespaces/inkscape" xmlns:rdf="http://www.w3.org/1999/02/22-rdf-syntax-ns#" xmlns:sodipodi="http://sodipodi.sourceforge.net/DTD/sodipodi-0.dtd" xmlns:svg="http://www.w3.org/2000/svg"><clipPath id="clipPath4680"><path id="rect4682" d="m75.437-65.3h746.293v746.293h-746.293z"/></clipPath><clipPath id="clipPath4684"><path id="rect4686" d="m51.774 633.621h265.469v265.469h-265.469z" transform="matrix(.707 .707 -.707 .707 0 0)"/></clipPath><g id="layer1" transform="translate(0 -540.362)"><g id="g3840"><g id="g3018"><path id="rect3465" d="m16 556.36215v240 240.00005h480v-240.00005-240z" fill="#27ae60"/></g><g id="g3830"><path id="rect3007" d="m16 1036.3622h5.4375l136.25-68.35198 338.3125-169.71977v-1.12875l-480-240.79953z" fill="#fff"/><path id="path3828" d="m16 1016.3622h4.984375l124.895835-62.65598 310.11979-155.57646v-1.03469l-440-220.7329z" fill="#f1c40f"/></g><g id="g3834" transform="matrix(.5 0 0 1 8 0)"><path id="path3836" d="m16 1036.3622h5.4375l136.25-68.35198 338.3125-169.71977v-1.12875l-480-240.79953z" fill="#222"/><path id="path3838" d="m16 1016.3622h4.984375l124.895835-62.65598 310.11979-155.57646v-1.03469l-440-220.7329z" fill="#e32d3c"/></g></g></g></svg>