<svg xmlns="http://www.w3.org/2000/svg" xmlns:xlink="http://www.w3.org/1999/xlink" width="340" zoomAndPan="magnify" viewBox="0 0 255 67.499998" height="90" preserveAspectRatio="xMidYMid meet" version="1.0"><defs><g/><clipPath id="bfbb369f5b"><path d="M 0.9375 7 L 254.0625 7 L 254.0625 67.003906 L 0.9375 67.003906 Z M 0.9375 7 " clip-rule="nonzero"/></clipPath><clipPath id="d669a4d470"><path d="M 5 0.148438 L 34 0.148438 L 34 47 L 5 47 Z M 5 0.148438 " clip-rule="nonzero"/></clipPath><clipPath id="5500ae182e"><rect x="0" width="255" y="0" height="61"/></clipPath></defs><g clip-path="url(#bfbb369f5b)"><g transform="matrix(1, 0, 0, 1, 0.000000000000000222, 7)"><g clip-path="url(#5500ae182e)"><g clip-path="url(#d669a4d470)"><g fill="#000000" fill-opacity="1"><g transform="translate(1.246635, 46.122245)"><g><path d="M 31.09375 -33.90625 C 31.09375 -31.21875 30.515625 -28.90625 29.359375 -26.96875 C 28.210938 -25.03125 26.335938 -23.613281 23.734375 -22.71875 L 23.734375 -22.59375 C 26.335938 -22.113281 28.363281 -20.976562 29.8125 -19.1875 C 31.269531 -17.40625 32 -15.171875 32 -12.484375 L 32 0 L 29.171875 0 L 29.171875 -12.859375 C 29.171875 -15.421875 28.273438 -17.457031 26.484375 -18.96875 C 24.691406 -20.488281 22.132812 -21.25 18.8125 -21.25 L 9.34375 -21.25 L 9.34375 -23.546875 L 16.828125 -23.546875 C 20.535156 -23.546875 23.367188 -24.441406 25.328125 -26.234375 C 27.296875 -28.023438 28.28125 -30.5 28.28125 -33.65625 C 28.28125 -35.0625 28.015625 -36.335938 27.484375 -37.484375 C 26.953125 -38.640625 26.203125 -39.632812 25.234375 -40.46875 C 24.273438 -41.300781 23.125 -41.953125 21.78125 -42.421875 C 20.4375 -42.890625 18.976562 -43.125 17.40625 -43.125 C 13.945312 -43.125 11.3125 -42.066406 9.5 -39.953125 C 7.6875 -37.847656 6.78125 -35.128906 6.78125 -31.796875 L 6.78125 0 L 4.09375 0 L 4.09375 -31.671875 C 4.09375 -33.628906 4.390625 -35.460938 4.984375 -37.171875 C 5.585938 -38.878906 6.460938 -40.351562 7.609375 -41.59375 C 8.765625 -42.832031 10.160156 -43.800781 11.796875 -44.5 C 13.441406 -45.207031 15.3125 -45.5625 17.40625 -45.5625 C 19.488281 -45.5625 21.375 -45.269531 23.0625 -44.6875 C 24.75 -44.113281 26.1875 -43.300781 27.375 -42.25 C 28.570312 -41.207031 29.488281 -39.972656 30.125 -38.546875 C 30.769531 -37.117188 31.09375 -35.570312 31.09375 -33.90625 Z M 31.09375 -33.90625 "/></g></g></g></g><g fill="#000000" fill-opacity="1"><g transform="translate(36.821144, 46.122245)"><g><path d="M 9.984375 -8.828125 L 8.453125 -10.875 L 27.96875 -24.0625 C 26.851562 -25.46875 25.453125 -26.585938 23.765625 -27.421875 C 22.085938 -28.253906 20.222656 -28.671875 18.171875 -28.671875 C 16.296875 -28.671875 14.554688 -28.316406 12.953125 -27.609375 C 11.359375 -26.898438 9.972656 -25.925781 8.796875 -24.6875 C 7.617188 -23.457031 6.6875 -22.007812 6 -20.34375 C 5.320312 -18.6875 4.984375 -16.894531 4.984375 -14.96875 C 4.984375 -13.132812 5.320312 -11.40625 6 -9.78125 C 6.6875 -8.164062 7.628906 -6.757812 8.828125 -5.5625 C 10.023438 -4.375 11.421875 -3.425781 13.015625 -2.71875 C 14.617188 -2.007812 16.335938 -1.65625 18.171875 -1.65625 C 19.960938 -1.65625 21.644531 -2 23.21875 -2.6875 C 24.800781 -3.375 26.195312 -4.289062 27.40625 -5.4375 C 28.625 -6.59375 29.585938 -7.945312 30.296875 -9.5 C 31.003906 -11.0625 31.398438 -12.738281 31.484375 -14.53125 L 34.046875 -14.53125 C 33.953125 -12.351562 33.476562 -10.332031 32.625 -8.46875 C 31.78125 -6.613281 30.648438 -5.015625 29.234375 -3.671875 C 27.828125 -2.328125 26.21875 -1.269531 24.40625 -0.5 C 22.59375 0.257812 20.6875 0.640625 18.6875 0.640625 C 16.289062 0.640625 14.101562 0.234375 12.125 -0.578125 C 10.144531 -1.390625 8.425781 -2.5 6.96875 -3.90625 C 5.519531 -5.3125 4.398438 -6.972656 3.609375 -8.890625 C 2.828125 -10.804688 2.4375 -12.875 2.4375 -15.09375 C 2.4375 -17.269531 2.828125 -19.328125 3.609375 -21.265625 C 4.398438 -23.210938 5.5 -24.898438 6.90625 -26.328125 C 8.3125 -27.753906 9.972656 -28.882812 11.890625 -29.71875 C 13.816406 -30.550781 15.910156 -30.96875 18.171875 -30.96875 C 21.117188 -30.96875 23.765625 -30.285156 26.109375 -28.921875 C 28.453125 -27.554688 30.304688 -25.765625 31.671875 -23.546875 Z M 9.984375 -8.828125 "/></g></g></g><g fill="#000000" fill-opacity="1"><g transform="translate(72.395653, 46.122245)"><g><path d="M 30.265625 -44.796875 L 30.265625 -42.359375 L 15.234375 -42.359375 C 12.160156 -42.359375 9.78125 -41.769531 8.09375 -40.59375 C 6.40625 -39.425781 5.5625 -37.390625 5.5625 -34.484375 C 5.5625 -33.242188 5.773438 -32.164062 6.203125 -31.25 C 6.628906 -30.332031 7.203125 -29.53125 7.921875 -28.84375 C 8.648438 -28.164062 9.515625 -27.570312 10.515625 -27.0625 C 11.523438 -26.550781 12.601562 -26.101562 13.75 -25.71875 C 15.070312 -25.25 16.46875 -24.820312 17.9375 -24.4375 C 19.414062 -24.050781 20.859375 -23.625 22.265625 -23.15625 C 23.671875 -22.6875 25.015625 -22.144531 26.296875 -21.53125 C 27.578125 -20.914062 28.695312 -20.148438 29.65625 -19.234375 C 30.613281 -18.316406 31.378906 -17.21875 31.953125 -15.9375 C 32.535156 -14.65625 32.828125 -13.117188 32.828125 -11.328125 C 32.828125 -9.410156 32.492188 -7.734375 31.828125 -6.296875 C 31.171875 -4.867188 30.234375 -3.695312 29.015625 -2.78125 C 27.796875 -1.863281 26.34375 -1.171875 24.65625 -0.703125 C 22.976562 -0.234375 21.113281 0 19.0625 0 L 2.75 0 L 2.75 -2.4375 L 18.75 -2.4375 C 22.207031 -2.4375 24.945312 -3.140625 26.96875 -4.546875 C 29 -5.953125 30.015625 -8.082031 30.015625 -10.9375 C 30.015625 -12.988281 29.539062 -14.65625 28.59375 -15.9375 C 27.65625 -17.21875 26.460938 -18.25 25.015625 -19.03125 C 23.566406 -19.820312 21.957031 -20.460938 20.1875 -20.953125 C 18.414062 -21.441406 16.675781 -21.941406 14.96875 -22.453125 C 13.351562 -22.921875 11.804688 -23.441406 10.328125 -24.015625 C 8.859375 -24.597656 7.554688 -25.359375 6.421875 -26.296875 C 5.296875 -27.234375 4.398438 -28.375 3.734375 -29.71875 C 3.078125 -31.0625 2.75 -32.738281 2.75 -34.75 C 2.75 -37.945312 3.800781 -40.421875 5.90625 -42.171875 C 8.019531 -43.921875 10.804688 -44.796875 14.265625 -44.796875 Z M 30.265625 -44.796875 "/></g></g></g><g fill="#000000" fill-opacity="1"><g transform="translate(107.970162, 46.122245)"><g><path d="M 3.84375 -38.640625 L 6.265625 -38.640625 L 6.265625 -30.328125 L 17.015625 -30.328125 L 17.015625 -28.03125 L 6.265625 -28.03125 L 6.265625 -8.25 C 6.265625 -6.457031 6.796875 -5.015625 7.859375 -3.921875 C 8.929688 -2.835938 10.300781 -2.296875 11.96875 -2.296875 L 17.015625 -2.296875 L 17.015625 0 L 12.484375 0 C 9.660156 0 7.515625 -0.773438 6.046875 -2.328125 C 4.578125 -3.890625 3.84375 -5.953125 3.84375 -8.515625 Z M 3.84375 -38.640625 "/></g></g></g><g fill="#000000" fill-opacity="1"><g transform="translate(125.757417, 46.122245)"><g><path d="M 3.84375 -30.328125 L 6.265625 -30.328125 L 6.265625 -24.5 L 6.40625 -24.5 C 6.957031 -25.65625 7.625 -26.601562 8.40625 -27.34375 C 9.195312 -28.09375 10 -28.691406 10.8125 -29.140625 C 11.625 -29.585938 12.398438 -29.894531 13.140625 -30.0625 C 13.890625 -30.238281 14.5 -30.328125 14.96875 -30.328125 L 18.171875 -30.328125 L 18.171875 -28.03125 L 15.234375 -28.03125 C 14.765625 -28.03125 14.21875 -27.929688 13.59375 -27.734375 C 12.976562 -27.546875 12.414062 -27.300781 11.90625 -27 C 11.257812 -26.613281 10.59375 -26.085938 9.90625 -25.421875 C 9.226562 -24.765625 8.625 -23.96875 8.09375 -23.03125 C 7.5625 -22.09375 7.125 -21.046875 6.78125 -19.890625 C 6.4375 -18.742188 6.265625 -17.488281 6.265625 -16.125 L 6.265625 0 L 3.84375 0 Z M 3.84375 -30.328125 "/></g></g></g><g fill="#000000" fill-opacity="1"><g transform="translate(143.544671, 46.122245)"><g><path d="M 9.015625 -38.90625 C 9.015625 -38.351562 8.832031 -37.894531 8.46875 -37.53125 C 8.113281 -37.164062 7.660156 -36.984375 7.109375 -36.984375 C 6.546875 -36.984375 6.082031 -37.164062 5.71875 -37.53125 C 5.363281 -37.894531 5.1875 -38.351562 5.1875 -38.90625 C 5.1875 -39.457031 5.363281 -39.914062 5.71875 -40.28125 C 6.082031 -40.644531 6.546875 -40.828125 7.109375 -40.828125 C 7.660156 -40.828125 8.113281 -40.644531 8.46875 -40.28125 C 8.832031 -39.914062 9.015625 -39.457031 9.015625 -38.90625 Z M 5.890625 -30.328125 L 8.3125 -30.328125 L 8.3125 0 L 5.890625 0 Z M 5.890625 -30.328125 "/></g></g></g><g fill="#000000" fill-opacity="1"><g transform="translate(157.748887, 46.122245)"><g><path d="M 22.453125 -30.96875 L 22.453125 -28.40625 L 17.78125 -28.40625 C 15.988281 -28.40625 14.3125 -28.09375 12.75 -27.46875 C 11.195312 -26.851562 9.84375 -25.976562 8.6875 -24.84375 C 7.539062 -23.71875 6.632812 -22.351562 5.96875 -20.75 C 5.3125 -19.15625 4.984375 -17.398438 4.984375 -15.484375 C 4.984375 -13.609375 5.300781 -11.878906 5.9375 -10.296875 C 6.582031 -8.722656 7.46875 -7.359375 8.59375 -6.203125 C 9.726562 -5.054688 11.082031 -4.160156 12.65625 -3.515625 C 14.238281 -2.878906 15.972656 -2.5625 17.859375 -2.5625 L 22.453125 -2.5625 L 22.453125 0 L 17.71875 0 C 15.539062 0 13.523438 -0.378906 11.671875 -1.140625 C 9.816406 -1.910156 8.195312 -2.976562 6.8125 -4.34375 C 5.425781 -5.71875 4.347656 -7.351562 3.578125 -9.25 C 2.816406 -11.144531 2.4375 -13.222656 2.4375 -15.484375 C 2.4375 -17.785156 2.828125 -19.882812 3.609375 -21.78125 C 4.398438 -23.6875 5.476562 -25.320312 6.84375 -26.6875 C 8.207031 -28.050781 9.828125 -29.101562 11.703125 -29.84375 C 13.585938 -30.59375 15.613281 -30.96875 17.78125 -30.96875 Z M 22.453125 -30.96875 "/></g></g></g><g fill="#000000" fill-opacity="1"><g transform="translate(182.638249, 46.122245)"><g><path d="M 3.84375 -38.640625 L 6.265625 -38.640625 L 6.265625 -30.328125 L 17.015625 -30.328125 L 17.015625 -28.03125 L 6.265625 -28.03125 L 6.265625 -8.25 C 6.265625 -6.457031 6.796875 -5.015625 7.859375 -3.921875 C 8.929688 -2.835938 10.300781 -2.296875 11.96875 -2.296875 L 17.015625 -2.296875 L 17.015625 0 L 12.484375 0 C 9.660156 0 7.515625 -0.773438 6.046875 -2.328125 C 4.578125 -3.890625 3.84375 -5.953125 3.84375 -8.515625 Z M 3.84375 -38.640625 "/></g></g></g><g fill="#000000" fill-opacity="1"><g transform="translate(200.425504, 46.122245)"><g><path d="M 4.09375 -44.796875 L 6.78125 -44.796875 L 6.78125 -13.5625 C 6.78125 -11.851562 7.066406 -10.273438 7.640625 -8.828125 C 8.222656 -7.378906 9.054688 -6.117188 10.140625 -5.046875 C 11.222656 -3.984375 12.554688 -3.148438 14.140625 -2.546875 C 15.722656 -1.953125 17.515625 -1.65625 19.515625 -1.65625 C 21.472656 -1.65625 23.238281 -1.953125 24.8125 -2.546875 C 26.394531 -3.148438 27.738281 -3.972656 28.84375 -5.015625 C 29.957031 -6.066406 30.800781 -7.316406 31.375 -8.765625 C 31.957031 -10.210938 32.25 -11.8125 32.25 -13.5625 L 32.25 -44.796875 L 34.9375 -44.796875 L 34.9375 -14.390625 C 34.9375 -12.003906 34.570312 -9.882812 33.84375 -8.03125 C 33.125 -6.175781 32.09375 -4.585938 30.75 -3.265625 C 29.40625 -1.941406 27.78125 -0.9375 25.875 -0.25 C 23.976562 0.425781 21.859375 0.765625 19.515625 0.765625 C 17.171875 0.765625 15.046875 0.414062 13.140625 -0.28125 C 11.242188 -0.988281 9.625 -2.003906 8.28125 -3.328125 C 6.9375 -4.648438 5.898438 -6.25 5.171875 -8.125 C 4.453125 -10 4.09375 -12.109375 4.09375 -14.453125 Z M 4.09375 -44.796875 "/></g></g></g><g fill="#000000" fill-opacity="1"><g transform="translate(239.519069, 46.122245)"><g><path d="M 5.765625 -44.796875 L 8.453125 -44.796875 L 8.453125 0 L 5.765625 0 Z M 5.765625 -44.796875 "/></g></g></g></g></g></g></svg>