<svg xmlns="http://www.w3.org/2000/svg" xmlns:xlink="http://www.w3.org/1999/xlink" width="500" zoomAndPan="magnify" viewBox="0 0 375 374.999991" height="500" preserveAspectRatio="xMidYMid meet" version="1.0"><defs><g/><clipPath id="92a0f5e877"><rect x="0" width="313" y="0" height="375"/></clipPath><clipPath id="af735bad29"><rect x="0" width="45" y="0" height="12"/></clipPath><clipPath id="a69e1b2eb5"><rect x="0" width="65" y="0" height="13"/></clipPath><clipPath id="10d82423d9"><rect x="0" width="10" y="0" height="12"/></clipPath></defs><g transform="matrix(1, 0, 0, 1, 36, 0)"><g clip-path="url(#92a0f5e877)"><g fill="#000000" fill-opacity="1"><g transform="translate(3.450764, 301.069604)"><g><path d="M 116.703125 5.5 C 101.804688 5.5 87.75 3.640625 74.53125 -0.078125 C 61.3125 -3.804688 49.304688 -9.09375 38.515625 -15.9375 C 27.734375 -22.789062 18.507812 -30.96875 10.84375 -40.46875 L 43.859375 -79.3125 C 55.085938 -66.6875 66.90625 -57.40625 79.3125 -51.46875 C 91.71875 -45.53125 105.039062 -42.5625 119.28125 -42.5625 C 127.375 -42.5625 134.578125 -43.585938 140.890625 -45.640625 C 147.203125 -47.691406 152.164062 -51.035156 155.78125 -55.671875 C 159.394531 -60.316406 161.203125 -66.578125 161.203125 -74.453125 C 161.203125 -82.765625 158.800781 -89.375 154 -94.28125 C 149.207031 -99.1875 140.550781 -102.722656 128.03125 -104.890625 L 87.234375 -112.65625 C 77.421875 -114.488281 68.332031 -117.265625 59.96875 -120.984375 C 51.601562 -124.710938 44.316406 -129.515625 38.109375 -135.390625 C 31.910156 -141.273438 27.109375 -148.367188 23.703125 -156.671875 C 20.304688 -164.984375 18.609375 -174.644531 18.609375 -185.65625 C 18.609375 -198.925781 20.789062 -210.414062 25.15625 -220.125 C 29.53125 -229.832031 35.679688 -237.867188 43.609375 -244.234375 C 51.546875 -250.609375 60.960938 -255.359375 71.859375 -258.484375 C 82.765625 -261.617188 94.691406 -263.1875 107.640625 -263.1875 C 125.765625 -263.1875 143.1875 -260.191406 159.90625 -254.203125 C 176.632812 -248.210938 191.796875 -239.117188 205.390625 -226.921875 L 175.609375 -187.921875 C 169.890625 -193.960938 163.09375 -199.25 155.21875 -203.78125 C 147.34375 -208.3125 139.113281 -211.84375 130.53125 -214.375 C 121.957031 -216.914062 113.675781 -218.1875 105.6875 -218.1875 C 99.320312 -218.1875 93.628906 -217.296875 88.609375 -215.515625 C 83.597656 -213.734375 79.660156 -210.953125 76.796875 -207.171875 C 73.941406 -203.398438 72.515625 -198.4375 72.515625 -192.28125 C 72.515625 -187.644531 73.429688 -183.519531 75.265625 -179.90625 C 77.097656 -176.289062 80.441406 -173.1875 85.296875 -170.59375 C 90.148438 -168.007812 97.054688 -165.90625 106.015625 -164.28125 L 139.6875 -157.96875 C 150.363281 -155.914062 160.367188 -153 169.703125 -149.21875 C 179.035156 -145.445312 187.234375 -140.515625 194.296875 -134.421875 C 201.367188 -128.328125 206.875 -120.851562 210.8125 -112 C 214.757812 -103.15625 216.734375 -92.742188 216.734375 -80.765625 C 216.734375 -62.742188 212.65625 -47.285156 204.5 -34.390625 C 196.351562 -21.492188 184.804688 -11.617188 169.859375 -4.765625 C 154.921875 2.078125 137.203125 5.5 116.703125 5.5 Z M 116.703125 5.5 "/></g></g></g><g fill="#000000" fill-opacity="1"><g transform="translate(208.282971, 301.069604)"><g><path d="M 33.34375 0 L 33.34375 -58.921875 L 91.765625 -58.921875 L 91.765625 0 Z M 33.34375 0 "/></g></g></g></g></g><g transform="matrix(1, 0, 0, 1, 232, 120)"><g clip-path="url(#af735bad29)"><g fill="#ffffff" fill-opacity="1"><g transform="translate(1.160543, 9.164898)"><g><path d="M 4.09375 -1.59375 C 4.09375 -1.25 4.007812 -0.953125 3.84375 -0.703125 C 3.675781 -0.453125 3.4375 -0.257812 3.125 -0.125 C 2.8125 0.0078125 2.429688 0.078125 1.984375 0.078125 C 1.785156 0.078125 1.59375 0.0625 1.40625 0.03125 C 1.21875 0.0078125 1.035156 -0.0234375 0.859375 -0.078125 C 0.691406 -0.128906 0.53125 -0.191406 0.375 -0.265625 L 0.375 -1.390625 C 0.644531 -1.273438 0.925781 -1.164062 1.21875 -1.0625 C 1.507812 -0.96875 1.796875 -0.921875 2.078125 -0.921875 C 2.273438 -0.921875 2.429688 -0.945312 2.546875 -1 C 2.671875 -1.050781 2.757812 -1.125 2.8125 -1.21875 C 2.875 -1.3125 2.90625 -1.414062 2.90625 -1.53125 C 2.90625 -1.675781 2.851562 -1.796875 2.75 -1.890625 C 2.65625 -1.992188 2.523438 -2.085938 2.359375 -2.171875 C 2.191406 -2.265625 2.003906 -2.363281 1.796875 -2.46875 C 1.660156 -2.53125 1.515625 -2.601562 1.359375 -2.6875 C 1.203125 -2.78125 1.050781 -2.890625 0.90625 -3.015625 C 0.769531 -3.148438 0.65625 -3.3125 0.5625 -3.5 C 0.476562 -3.6875 0.4375 -3.910156 0.4375 -4.171875 C 0.4375 -4.515625 0.515625 -4.804688 0.671875 -5.046875 C 0.828125 -5.285156 1.050781 -5.46875 1.34375 -5.59375 C 1.632812 -5.726562 1.976562 -5.796875 2.375 -5.796875 C 2.664062 -5.796875 2.945312 -5.757812 3.21875 -5.6875 C 3.488281 -5.625 3.769531 -5.523438 4.0625 -5.390625 L 3.671875 -4.453125 C 3.410156 -4.554688 3.175781 -4.632812 2.96875 -4.6875 C 2.757812 -4.75 2.546875 -4.78125 2.328125 -4.78125 C 2.179688 -4.78125 2.050781 -4.753906 1.9375 -4.703125 C 1.832031 -4.660156 1.753906 -4.59375 1.703125 -4.5 C 1.648438 -4.414062 1.625 -4.316406 1.625 -4.203125 C 1.625 -4.066406 1.660156 -3.953125 1.734375 -3.859375 C 1.816406 -3.773438 1.9375 -3.6875 2.09375 -3.59375 C 2.257812 -3.507812 2.460938 -3.410156 2.703125 -3.296875 C 2.992188 -3.160156 3.238281 -3.015625 3.4375 -2.859375 C 3.644531 -2.710938 3.804688 -2.535156 3.921875 -2.328125 C 4.035156 -2.128906 4.09375 -1.882812 4.09375 -1.59375 Z M 4.09375 -1.59375 "/></g></g></g><g fill="#ffffff" fill-opacity="1"><g transform="translate(5.174782, 9.164898)"><g><path d="M 2.921875 0 L 1.71875 0 L 1.71875 -4.703125 L 0.15625 -4.703125 L 0.15625 -5.71875 L 4.46875 -5.71875 L 4.46875 -4.703125 L 2.921875 -4.703125 Z M 2.921875 0 "/></g></g></g><g fill="#ffffff" fill-opacity="1"><g transform="translate(9.415583, 9.164898)"><g><path d="M 2.390625 -5.71875 C 2.898438 -5.71875 3.320312 -5.65625 3.65625 -5.53125 C 4 -5.40625 4.253906 -5.210938 4.421875 -4.953125 C 4.585938 -4.703125 4.671875 -4.382812 4.671875 -4 C 4.671875 -3.738281 4.617188 -3.507812 4.515625 -3.3125 C 4.421875 -3.125 4.289062 -2.960938 4.125 -2.828125 C 3.96875 -2.691406 3.796875 -2.578125 3.609375 -2.484375 L 5.28125 0 L 3.9375 0 L 2.578125 -2.1875 L 1.9375 -2.1875 L 1.9375 0 L 0.71875 0 L 0.71875 -5.71875 Z M 2.296875 -4.71875 L 1.9375 -4.71875 L 1.9375 -3.171875 L 2.328125 -3.171875 C 2.722656 -3.171875 3.003906 -3.238281 3.171875 -3.375 C 3.347656 -3.507812 3.4375 -3.707031 3.4375 -3.96875 C 3.4375 -4.238281 3.34375 -4.429688 3.15625 -4.546875 C 2.976562 -4.660156 2.691406 -4.71875 2.296875 -4.71875 Z M 2.296875 -4.71875 "/></g></g></g><g fill="#ffffff" fill-opacity="1"><g transform="translate(14.304819, 9.164898)"><g><path d="M 0.71875 0 L 0.71875 -5.71875 L 1.9375 -5.71875 L 1.9375 0 Z M 0.71875 0 "/></g></g></g><g fill="#ffffff" fill-opacity="1"><g transform="translate(16.561251, 9.164898)"><g><path d="M 3.140625 -4.78125 C 2.910156 -4.78125 2.707031 -4.734375 2.53125 -4.640625 C 2.351562 -4.554688 2.203125 -4.429688 2.078125 -4.265625 C 1.960938 -4.097656 1.875 -3.894531 1.8125 -3.65625 C 1.75 -3.414062 1.71875 -3.144531 1.71875 -2.84375 C 1.71875 -2.4375 1.765625 -2.085938 1.859375 -1.796875 C 1.960938 -1.515625 2.117188 -1.300781 2.328125 -1.15625 C 2.535156 -1.007812 2.804688 -0.9375 3.140625 -0.9375 C 3.378906 -0.9375 3.613281 -0.960938 3.84375 -1.015625 C 4.070312 -1.066406 4.328125 -1.140625 4.609375 -1.234375 L 4.609375 -0.21875 C 4.347656 -0.113281 4.09375 -0.0390625 3.84375 0 C 3.601562 0.0507812 3.332031 0.078125 3.03125 0.078125 C 2.445312 0.078125 1.960938 -0.0390625 1.578125 -0.28125 C 1.203125 -0.53125 0.921875 -0.875 0.734375 -1.3125 C 0.554688 -1.75 0.46875 -2.257812 0.46875 -2.84375 C 0.46875 -3.28125 0.523438 -3.675781 0.640625 -4.03125 C 0.753906 -4.394531 0.925781 -4.707031 1.15625 -4.96875 C 1.382812 -5.226562 1.664062 -5.429688 2 -5.578125 C 2.332031 -5.722656 2.710938 -5.796875 3.140625 -5.796875 C 3.429688 -5.796875 3.71875 -5.757812 4 -5.6875 C 4.28125 -5.613281 4.550781 -5.515625 4.8125 -5.390625 L 4.421875 -4.40625 C 4.210938 -4.507812 4 -4.597656 3.78125 -4.671875 C 3.5625 -4.742188 3.347656 -4.78125 3.140625 -4.78125 Z M 3.140625 -4.78125 "/></g></g></g><g fill="#ffffff" fill-opacity="1"><g transform="translate(21.266894, 9.164898)"><g><path d="M 2.921875 0 L 1.71875 0 L 1.71875 -4.703125 L 0.15625 -4.703125 L 0.15625 -5.71875 L 4.46875 -5.71875 L 4.46875 -4.703125 L 2.921875 -4.703125 Z M 2.921875 0 "/></g></g></g><g fill="#ffffff" fill-opacity="1"><g transform="translate(25.507694, 9.164898)"><g/></g></g><g fill="#ffffff" fill-opacity="1"><g transform="translate(27.193816, 9.164898)"><g><path d="M 7.734375 -5.71875 L 6.28125 0 L 4.90625 0 L 4.125 -3 C 4.113281 -3.0625 4.09375 -3.148438 4.0625 -3.265625 C 4.039062 -3.378906 4.015625 -3.503906 3.984375 -3.640625 C 3.953125 -3.785156 3.925781 -3.921875 3.90625 -4.046875 C 3.882812 -4.171875 3.867188 -4.269531 3.859375 -4.34375 C 3.859375 -4.269531 3.84375 -4.171875 3.8125 -4.046875 C 3.789062 -3.921875 3.765625 -3.789062 3.734375 -3.65625 C 3.710938 -3.519531 3.6875 -3.390625 3.65625 -3.265625 C 3.632812 -3.148438 3.617188 -3.0625 3.609375 -3 L 2.828125 0 L 1.453125 0 L 0 -5.71875 L 1.1875 -5.71875 L 1.921875 -2.59375 C 1.941406 -2.5 1.960938 -2.382812 1.984375 -2.25 C 2.015625 -2.125 2.046875 -1.988281 2.078125 -1.84375 C 2.109375 -1.707031 2.132812 -1.570312 2.15625 -1.4375 C 2.175781 -1.3125 2.191406 -1.195312 2.203125 -1.09375 C 2.210938 -1.195312 2.226562 -1.3125 2.25 -1.4375 C 2.269531 -1.570312 2.289062 -1.707031 2.3125 -1.84375 C 2.34375 -1.976562 2.367188 -2.101562 2.390625 -2.21875 C 2.421875 -2.34375 2.445312 -2.441406 2.46875 -2.515625 L 3.296875 -5.71875 L 4.4375 -5.71875 L 5.28125 -2.515625 C 5.289062 -2.441406 5.304688 -2.34375 5.328125 -2.21875 C 5.359375 -2.101562 5.382812 -1.976562 5.40625 -1.84375 C 5.4375 -1.707031 5.460938 -1.570312 5.484375 -1.4375 C 5.503906 -1.3125 5.519531 -1.195312 5.53125 -1.09375 C 5.550781 -1.226562 5.578125 -1.390625 5.609375 -1.578125 C 5.640625 -1.765625 5.675781 -1.945312 5.71875 -2.125 C 5.757812 -2.3125 5.789062 -2.46875 5.8125 -2.59375 L 6.546875 -5.71875 Z M 7.734375 -5.71875 "/></g></g></g><g fill="#ffffff" fill-opacity="1"><g transform="translate(34.536169, 9.164898)"><g><path d="M 4.015625 0 L 0.71875 0 L 0.71875 -5.71875 L 4.015625 -5.71875 L 4.015625 -4.71875 L 1.9375 -4.71875 L 1.9375 -3.46875 L 3.859375 -3.46875 L 3.859375 -2.46875 L 1.9375 -2.46875 L 1.9375 -1 L 4.015625 -1 Z M 4.015625 0 "/></g></g></g><g fill="#ffffff" fill-opacity="1"><g transform="translate(38.624627, 9.164898)"><g><path d="M 0.71875 -5.71875 L 2.5 -5.71875 C 3.257812 -5.71875 3.832031 -5.609375 4.21875 -5.390625 C 4.613281 -5.179688 4.8125 -4.804688 4.8125 -4.265625 C 4.8125 -4.046875 4.773438 -3.847656 4.703125 -3.671875 C 4.640625 -3.503906 4.539062 -3.363281 4.40625 -3.25 C 4.28125 -3.132812 4.125 -3.0625 3.9375 -3.03125 L 3.9375 -3 C 4.125 -2.957031 4.289062 -2.890625 4.4375 -2.796875 C 4.59375 -2.703125 4.71875 -2.5625 4.8125 -2.375 C 4.90625 -2.195312 4.953125 -1.957031 4.953125 -1.65625 C 4.953125 -1.3125 4.867188 -1.015625 4.703125 -0.765625 C 4.535156 -0.515625 4.289062 -0.320312 3.96875 -0.1875 C 3.65625 -0.0625 3.285156 0 2.859375 0 L 0.71875 0 Z M 1.9375 -3.453125 L 2.640625 -3.453125 C 2.984375 -3.453125 3.222656 -3.503906 3.359375 -3.609375 C 3.492188 -3.722656 3.5625 -3.890625 3.5625 -4.109375 C 3.5625 -4.328125 3.484375 -4.484375 3.328125 -4.578125 C 3.171875 -4.671875 2.914062 -4.71875 2.5625 -4.71875 L 1.9375 -4.71875 Z M 1.9375 -2.484375 L 1.9375 -1 L 2.71875 -1 C 3.082031 -1 3.335938 -1.066406 3.484375 -1.203125 C 3.628906 -1.347656 3.703125 -1.539062 3.703125 -1.78125 C 3.703125 -1.914062 3.671875 -2.035156 3.609375 -2.140625 C 3.546875 -2.253906 3.4375 -2.335938 3.28125 -2.390625 C 3.132812 -2.453125 2.9375 -2.484375 2.6875 -2.484375 Z M 1.9375 -2.484375 "/></g></g></g></g></g><g transform="matrix(1, 0, 0, 1, 212, 133)"><g clip-path="url(#a69e1b2eb5)"><g fill="#ffffff" fill-opacity="1"><g transform="translate(0.941858, 9.760947)"><g><path d="M 4.09375 -1.59375 C 4.09375 -1.25 4.007812 -0.953125 3.84375 -0.703125 C 3.675781 -0.453125 3.4375 -0.257812 3.125 -0.125 C 2.8125 0.0078125 2.429688 0.078125 1.984375 0.078125 C 1.785156 0.078125 1.59375 0.0625 1.40625 0.03125 C 1.21875 0.0078125 1.035156 -0.0234375 0.859375 -0.078125 C 0.691406 -0.128906 0.53125 -0.191406 0.375 -0.265625 L 0.375 -1.390625 C 0.644531 -1.273438 0.925781 -1.164062 1.21875 -1.0625 C 1.507812 -0.96875 1.796875 -0.921875 2.078125 -0.921875 C 2.273438 -0.921875 2.429688 -0.945312 2.546875 -1 C 2.671875 -1.050781 2.757812 -1.125 2.8125 -1.21875 C 2.875 -1.3125 2.90625 -1.414062 2.90625 -1.53125 C 2.90625 -1.675781 2.851562 -1.796875 2.75 -1.890625 C 2.65625 -1.992188 2.523438 -2.085938 2.359375 -2.171875 C 2.191406 -2.265625 2.003906 -2.363281 1.796875 -2.46875 C 1.660156 -2.53125 1.515625 -2.601562 1.359375 -2.6875 C 1.203125 -2.78125 1.050781 -2.890625 0.90625 -3.015625 C 0.769531 -3.148438 0.65625 -3.3125 0.5625 -3.5 C 0.476562 -3.6875 0.4375 -3.910156 0.4375 -4.171875 C 0.4375 -4.515625 0.515625 -4.804688 0.671875 -5.046875 C 0.828125 -5.285156 1.050781 -5.46875 1.34375 -5.59375 C 1.632812 -5.726562 1.976562 -5.796875 2.375 -5.796875 C 2.664062 -5.796875 2.945312 -5.757812 3.21875 -5.6875 C 3.488281 -5.625 3.769531 -5.523438 4.0625 -5.390625 L 3.671875 -4.453125 C 3.410156 -4.554688 3.175781 -4.632812 2.96875 -4.6875 C 2.757812 -4.75 2.546875 -4.78125 2.328125 -4.78125 C 2.179688 -4.78125 2.050781 -4.753906 1.9375 -4.703125 C 1.832031 -4.660156 1.753906 -4.59375 1.703125 -4.5 C 1.648438 -4.414062 1.625 -4.316406 1.625 -4.203125 C 1.625 -4.066406 1.660156 -3.953125 1.734375 -3.859375 C 1.816406 -3.773438 1.9375 -3.6875 2.09375 -3.59375 C 2.257812 -3.507812 2.460938 -3.410156 2.703125 -3.296875 C 2.992188 -3.160156 3.238281 -3.015625 3.4375 -2.859375 C 3.644531 -2.710938 3.804688 -2.535156 3.921875 -2.328125 C 4.035156 -2.128906 4.09375 -1.882812 4.09375 -1.59375 Z M 4.09375 -1.59375 "/></g></g></g><g fill="#ffffff" fill-opacity="1"><g transform="translate(4.956097, 9.760947)"><g><path d="M 2.921875 0 L 1.71875 0 L 1.71875 -4.703125 L 0.15625 -4.703125 L 0.15625 -5.71875 L 4.46875 -5.71875 L 4.46875 -4.703125 L 2.921875 -4.703125 Z M 2.921875 0 "/></g></g></g><g fill="#ffffff" fill-opacity="1"><g transform="translate(9.196897, 9.760947)"><g><path d="M 2.390625 -5.71875 C 2.898438 -5.71875 3.320312 -5.65625 3.65625 -5.53125 C 4 -5.40625 4.253906 -5.210938 4.421875 -4.953125 C 4.585938 -4.703125 4.671875 -4.382812 4.671875 -4 C 4.671875 -3.738281 4.617188 -3.507812 4.515625 -3.3125 C 4.421875 -3.125 4.289062 -2.960938 4.125 -2.828125 C 3.96875 -2.691406 3.796875 -2.578125 3.609375 -2.484375 L 5.28125 0 L 3.9375 0 L 2.578125 -2.1875 L 1.9375 -2.1875 L 1.9375 0 L 0.71875 0 L 0.71875 -5.71875 Z M 2.296875 -4.71875 L 1.9375 -4.71875 L 1.9375 -3.171875 L 2.328125 -3.171875 C 2.722656 -3.171875 3.003906 -3.238281 3.171875 -3.375 C 3.347656 -3.507812 3.4375 -3.707031 3.4375 -3.96875 C 3.4375 -4.238281 3.34375 -4.429688 3.15625 -4.546875 C 2.976562 -4.660156 2.691406 -4.71875 2.296875 -4.71875 Z M 2.296875 -4.71875 "/></g></g></g><g fill="#ffffff" fill-opacity="1"><g transform="translate(14.086133, 9.760947)"><g><path d="M 0.71875 0 L 0.71875 -5.71875 L 1.9375 -5.71875 L 1.9375 0 Z M 0.71875 0 "/></g></g></g><g fill="#ffffff" fill-opacity="1"><g transform="translate(16.342565, 9.760947)"><g><path d="M 3.140625 -4.78125 C 2.910156 -4.78125 2.707031 -4.734375 2.53125 -4.640625 C 2.351562 -4.554688 2.203125 -4.429688 2.078125 -4.265625 C 1.960938 -4.097656 1.875 -3.894531 1.8125 -3.65625 C 1.75 -3.414062 1.71875 -3.144531 1.71875 -2.84375 C 1.71875 -2.4375 1.765625 -2.085938 1.859375 -1.796875 C 1.960938 -1.515625 2.117188 -1.300781 2.328125 -1.15625 C 2.535156 -1.007812 2.804688 -0.9375 3.140625 -0.9375 C 3.378906 -0.9375 3.613281 -0.960938 3.84375 -1.015625 C 4.070312 -1.066406 4.328125 -1.140625 4.609375 -1.234375 L 4.609375 -0.21875 C 4.347656 -0.113281 4.09375 -0.0390625 3.84375 0 C 3.601562 0.0507812 3.332031 0.078125 3.03125 0.078125 C 2.445312 0.078125 1.960938 -0.0390625 1.578125 -0.28125 C 1.203125 -0.53125 0.921875 -0.875 0.734375 -1.3125 C 0.554688 -1.75 0.46875 -2.257812 0.46875 -2.84375 C 0.46875 -3.28125 0.523438 -3.675781 0.640625 -4.03125 C 0.753906 -4.394531 0.925781 -4.707031 1.15625 -4.96875 C 1.382812 -5.226562 1.664062 -5.429688 2 -5.578125 C 2.332031 -5.722656 2.710938 -5.796875 3.140625 -5.796875 C 3.429688 -5.796875 3.71875 -5.757812 4 -5.6875 C 4.28125 -5.613281 4.550781 -5.515625 4.8125 -5.390625 L 4.421875 -4.40625 C 4.210938 -4.507812 4 -4.597656 3.78125 -4.671875 C 3.5625 -4.742188 3.347656 -4.78125 3.140625 -4.78125 Z M 3.140625 -4.78125 "/></g></g></g><g fill="#ffffff" fill-opacity="1"><g transform="translate(21.048208, 9.760947)"><g><path d="M 2.921875 0 L 1.71875 0 L 1.71875 -4.703125 L 0.15625 -4.703125 L 0.15625 -5.71875 L 4.46875 -5.71875 L 4.46875 -4.703125 L 2.921875 -4.703125 Z M 2.921875 0 "/></g></g></g><g fill="#ffffff" fill-opacity="1"><g transform="translate(25.289009, 9.760947)"><g><path d="M 0.234375 -1.65625 L 0.234375 -2.640625 L 2.34375 -2.640625 L 2.34375 -1.65625 Z M 0.234375 -1.65625 "/></g></g></g><g fill="#ffffff" fill-opacity="1"><g transform="translate(27.471222, 9.760947)"><g><path d="M 7.734375 -5.71875 L 6.28125 0 L 4.90625 0 L 4.125 -3 C 4.113281 -3.0625 4.09375 -3.148438 4.0625 -3.265625 C 4.039062 -3.378906 4.015625 -3.503906 3.984375 -3.640625 C 3.953125 -3.785156 3.925781 -3.921875 3.90625 -4.046875 C 3.882812 -4.171875 3.867188 -4.269531 3.859375 -4.34375 C 3.859375 -4.269531 3.84375 -4.171875 3.8125 -4.046875 C 3.789062 -3.921875 3.765625 -3.789062 3.734375 -3.65625 C 3.710938 -3.519531 3.6875 -3.390625 3.65625 -3.265625 C 3.632812 -3.148438 3.617188 -3.0625 3.609375 -3 L 2.828125 0 L 1.453125 0 L 0 -5.71875 L 1.1875 -5.71875 L 1.921875 -2.59375 C 1.941406 -2.5 1.960938 -2.382812 1.984375 -2.25 C 2.015625 -2.125 2.046875 -1.988281 2.078125 -1.84375 C 2.109375 -1.707031 2.132812 -1.570312 2.15625 -1.4375 C 2.175781 -1.3125 2.191406 -1.195312 2.203125 -1.09375 C 2.210938 -1.195312 2.226562 -1.3125 2.25 -1.4375 C 2.269531 -1.570312 2.289062 -1.707031 2.3125 -1.84375 C 2.34375 -1.976562 2.367188 -2.101562 2.390625 -2.21875 C 2.421875 -2.34375 2.445312 -2.441406 2.46875 -2.515625 L 3.296875 -5.71875 L 4.4375 -5.71875 L 5.28125 -2.515625 C 5.289062 -2.441406 5.304688 -2.34375 5.328125 -2.21875 C 5.359375 -2.101562 5.382812 -1.976562 5.40625 -1.84375 C 5.4375 -1.707031 5.460938 -1.570312 5.484375 -1.4375 C 5.503906 -1.3125 5.519531 -1.195312 5.53125 -1.09375 C 5.550781 -1.226562 5.578125 -1.390625 5.609375 -1.578125 C 5.640625 -1.765625 5.675781 -1.945312 5.71875 -2.125 C 5.757812 -2.3125 5.789062 -2.46875 5.8125 -2.59375 L 6.546875 -5.71875 Z M 7.734375 -5.71875 "/></g></g></g><g fill="#ffffff" fill-opacity="1"><g transform="translate(34.813576, 9.760947)"><g><path d="M 4.015625 0 L 0.71875 0 L 0.71875 -5.71875 L 4.015625 -5.71875 L 4.015625 -4.71875 L 1.9375 -4.71875 L 1.9375 -3.46875 L 3.859375 -3.46875 L 3.859375 -2.46875 L 1.9375 -2.46875 L 1.9375 -1 L 4.015625 -1 Z M 4.015625 0 "/></g></g></g><g fill="#ffffff" fill-opacity="1"><g transform="translate(38.902033, 9.760947)"><g><path d="M 0.71875 -5.71875 L 2.5 -5.71875 C 3.257812 -5.71875 3.832031 -5.609375 4.21875 -5.390625 C 4.613281 -5.179688 4.8125 -4.804688 4.8125 -4.265625 C 4.8125 -4.046875 4.773438 -3.847656 4.703125 -3.671875 C 4.640625 -3.503906 4.539062 -3.363281 4.40625 -3.25 C 4.28125 -3.132812 4.125 -3.0625 3.9375 -3.03125 L 3.9375 -3 C 4.125 -2.957031 4.289062 -2.890625 4.4375 -2.796875 C 4.59375 -2.703125 4.71875 -2.5625 4.8125 -2.375 C 4.90625 -2.195312 4.953125 -1.957031 4.953125 -1.65625 C 4.953125 -1.3125 4.867188 -1.015625 4.703125 -0.765625 C 4.535156 -0.515625 4.289062 -0.320312 3.96875 -0.1875 C 3.65625 -0.0625 3.285156 0 2.859375 0 L 0.71875 0 Z M 1.9375 -3.453125 L 2.640625 -3.453125 C 2.984375 -3.453125 3.222656 -3.503906 3.359375 -3.609375 C 3.492188 -3.722656 3.5625 -3.890625 3.5625 -4.109375 C 3.5625 -4.328125 3.484375 -4.484375 3.328125 -4.578125 C 3.171875 -4.671875 2.914062 -4.71875 2.5625 -4.71875 L 1.9375 -4.71875 Z M 1.9375 -2.484375 L 1.9375 -1 L 2.71875 -1 C 3.082031 -1 3.335938 -1.066406 3.484375 -1.203125 C 3.628906 -1.347656 3.703125 -1.539062 3.703125 -1.78125 C 3.703125 -1.914062 3.671875 -2.035156 3.609375 -2.140625 C 3.546875 -2.253906 3.4375 -2.335938 3.28125 -2.390625 C 3.132812 -2.453125 2.9375 -2.484375 2.6875 -2.484375 Z M 1.9375 -2.484375 "/></g></g></g><g fill="#ffffff" fill-opacity="1"><g transform="translate(43.885019, 9.760947)"><g><path d="M 0.453125 -0.5625 C 0.453125 -0.800781 0.519531 -0.96875 0.65625 -1.0625 C 0.789062 -1.164062 0.953125 -1.21875 1.140625 -1.21875 C 1.328125 -1.21875 1.488281 -1.164062 1.625 -1.0625 C 1.757812 -0.96875 1.828125 -0.800781 1.828125 -0.5625 C 1.828125 -0.320312 1.757812 -0.148438 1.625 -0.046875 C 1.488281 0.0546875 1.328125 0.109375 1.140625 0.109375 C 0.953125 0.109375 0.789062 0.0546875 0.65625 -0.046875 C 0.519531 -0.148438 0.453125 -0.320312 0.453125 -0.5625 Z M 0.453125 -0.5625 "/></g></g></g><g fill="#ffffff" fill-opacity="1"><g transform="translate(45.774265, 9.760947)"><g><path d="M 3.140625 -4.78125 C 2.910156 -4.78125 2.707031 -4.734375 2.53125 -4.640625 C 2.351562 -4.554688 2.203125 -4.429688 2.078125 -4.265625 C 1.960938 -4.097656 1.875 -3.894531 1.8125 -3.65625 C 1.75 -3.414062 1.71875 -3.144531 1.71875 -2.84375 C 1.71875 -2.4375 1.765625 -2.085938 1.859375 -1.796875 C 1.960938 -1.515625 2.117188 -1.300781 2.328125 -1.15625 C 2.535156 -1.007812 2.804688 -0.9375 3.140625 -0.9375 C 3.378906 -0.9375 3.613281 -0.960938 3.84375 -1.015625 C 4.070312 -1.066406 4.328125 -1.140625 4.609375 -1.234375 L 4.609375 -0.21875 C 4.347656 -0.113281 4.09375 -0.0390625 3.84375 0 C 3.601562 0.0507812 3.332031 0.078125 3.03125 0.078125 C 2.445312 0.078125 1.960938 -0.0390625 1.578125 -0.28125 C 1.203125 -0.53125 0.921875 -0.875 0.734375 -1.3125 C 0.554688 -1.75 0.46875 -2.257812 0.46875 -2.84375 C 0.46875 -3.28125 0.523438 -3.675781 0.640625 -4.03125 C 0.753906 -4.394531 0.925781 -4.707031 1.15625 -4.96875 C 1.382812 -5.226562 1.664062 -5.429688 2 -5.578125 C 2.332031 -5.722656 2.710938 -5.796875 3.140625 -5.796875 C 3.429688 -5.796875 3.71875 -5.757812 4 -5.6875 C 4.28125 -5.613281 4.550781 -5.515625 4.8125 -5.390625 L 4.421875 -4.40625 C 4.210938 -4.507812 4 -4.597656 3.78125 -4.671875 C 3.5625 -4.742188 3.347656 -4.78125 3.140625 -4.78125 Z M 3.140625 -4.78125 "/></g></g></g><g fill="#ffffff" fill-opacity="1"><g transform="translate(50.479908, 9.760947)"><g><path d="M 5.90625 -2.859375 C 5.90625 -2.421875 5.847656 -2.019531 5.734375 -1.65625 C 5.628906 -1.300781 5.460938 -0.992188 5.234375 -0.734375 C 5.015625 -0.472656 4.734375 -0.269531 4.390625 -0.125 C 4.054688 0.0078125 3.65625 0.078125 3.1875 0.078125 C 2.71875 0.078125 2.3125 0.0078125 1.96875 -0.125 C 1.632812 -0.269531 1.351562 -0.472656 1.125 -0.734375 C 0.90625 -0.992188 0.738281 -1.300781 0.625 -1.65625 C 0.519531 -2.019531 0.46875 -2.425781 0.46875 -2.875 C 0.46875 -3.46875 0.5625 -3.984375 0.75 -4.421875 C 0.945312 -4.859375 1.25 -5.195312 1.65625 -5.4375 C 2.0625 -5.675781 2.570312 -5.796875 3.1875 -5.796875 C 3.8125 -5.796875 4.320312 -5.675781 4.71875 -5.4375 C 5.125 -5.195312 5.421875 -4.851562 5.609375 -4.40625 C 5.804688 -3.96875 5.90625 -3.453125 5.90625 -2.859375 Z M 1.734375 -2.859375 C 1.734375 -2.460938 1.78125 -2.117188 1.875 -1.828125 C 1.976562 -1.546875 2.132812 -1.328125 2.34375 -1.171875 C 2.5625 -1.015625 2.84375 -0.9375 3.1875 -0.9375 C 3.53125 -0.9375 3.804688 -1.015625 4.015625 -1.171875 C 4.234375 -1.328125 4.390625 -1.546875 4.484375 -1.828125 C 4.585938 -2.117188 4.640625 -2.460938 4.640625 -2.859375 C 4.640625 -3.460938 4.523438 -3.9375 4.296875 -4.28125 C 4.078125 -4.625 3.707031 -4.796875 3.1875 -4.796875 C 2.851562 -4.796875 2.578125 -4.71875 2.359375 -4.5625 C 2.140625 -4.40625 1.976562 -4.179688 1.875 -3.890625 C 1.78125 -3.609375 1.734375 -3.265625 1.734375 -2.859375 Z M 1.734375 -2.859375 "/></g></g></g><g fill="#ffffff" fill-opacity="1"><g transform="translate(56.455078, 9.760947)"><g><path d="M 3.140625 0 L 1.765625 -4.484375 L 1.734375 -4.484375 C 1.734375 -4.378906 1.738281 -4.21875 1.75 -4 C 1.757812 -3.78125 1.769531 -3.550781 1.78125 -3.3125 C 1.789062 -3.070312 1.796875 -2.851562 1.796875 -2.65625 L 1.796875 0 L 0.71875 0 L 0.71875 -5.71875 L 2.375 -5.71875 L 3.71875 -1.34375 L 3.75 -1.34375 L 5.171875 -5.71875 L 6.828125 -5.71875 L 6.828125 0 L 5.703125 0 L 5.703125 -2.703125 C 5.703125 -2.878906 5.703125 -3.082031 5.703125 -3.3125 C 5.710938 -3.550781 5.722656 -3.773438 5.734375 -3.984375 C 5.742188 -4.203125 5.75 -4.363281 5.75 -4.46875 L 5.71875 -4.46875 L 4.25 0 Z M 3.140625 0 "/></g></g></g></g></g><g transform="matrix(1, 0, 0, 1, 267, 127)"><g clip-path="url(#10d82423d9)"><g fill="#ffffff" fill-opacity="1"><g transform="translate(0.691816, 8.962933)"><g><path d="M 5.375 -5.71875 L 5.375 -2.015625 C 5.375 -1.617188 5.285156 -1.265625 5.109375 -0.953125 C 4.929688 -0.640625 4.664062 -0.390625 4.3125 -0.203125 C 3.96875 -0.015625 3.53125 0.078125 3 0.078125 C 2.25 0.078125 1.675781 -0.113281 1.28125 -0.5 C 0.882812 -0.882812 0.6875 -1.394531 0.6875 -2.03125 L 0.6875 -5.71875 L 1.890625 -5.71875 L 1.890625 -2.21875 C 1.890625 -1.75 1.984375 -1.414062 2.171875 -1.21875 C 2.367188 -1.03125 2.65625 -0.9375 3.03125 -0.9375 C 3.300781 -0.9375 3.515625 -0.984375 3.671875 -1.078125 C 3.835938 -1.171875 3.957031 -1.3125 4.03125 -1.5 C 4.113281 -1.6875 4.15625 -1.925781 4.15625 -2.21875 L 4.15625 -5.71875 Z M 5.375 -5.71875 "/></g></g></g><g fill="#ffffff" fill-opacity="1"><g transform="translate(6.346687, 8.962933)"><g><path d="M 0.71875 0 L 0.71875 -5.71875 L 1.9375 -5.71875 L 1.9375 0 Z M 0.71875 0 "/></g></g></g></g></g></svg>